<?xml version="1.0" standalone="no"?>
<!DOCTYPE svg PUBLIC "-//W3C//DTD SVG 20010904//EN"
 "http://www.w3.org/TR/2001/REC-SVG-20010904/DTD/svg10.dtd">
<svg version="1.0" xmlns="http://www.w3.org/2000/svg"
 width="500.000000pt" height="500.000000pt" viewBox="0 0 500.000000 500.000000"
 preserveAspectRatio="xMidYMid meet">

<g transform="translate(0.000000,500.000000) scale(0.100000,-0.100000)"
fill="#000000" stroke="none">
<path d="M2381 4804 c-92 -24 -191 -83 -262 -156 l-66 -66 -44 10 c-61 14
-211 3 -291 -22 -181 -56 -326 -214 -368 -401 -16 -73 -8 -229 15 -294 23 -66
76 -147 130 -199 51 -50 176 -118 253 -137 30 -7 57 -20 62 -29 7 -14 20 -88
36 -205 3 -27 9 -167 13 -310 5 -226 8 -265 24 -288 l17 -27 629 0 c727 0 672
-8 678 96 1 32 8 156 14 274 6 118 17 269 25 335 7 66 14 123 14 126 0 3 39
19 87 34 186 61 319 189 367 354 25 86 21 224 -9 318 -82 260 -349 419 -626
374 l-56 -9 -74 72 c-81 80 -180 135 -277 155 -73 15 -226 13 -291 -5z m289
-135 c100 -27 162 -63 230 -130 l56 -57 90 5 c168 10 294 -34 394 -136 102
-105 147 -227 137 -378 -11 -186 -139 -338 -339 -404 -57 -18 -68 -26 -72 -48
-9 -43 -24 -208 -32 -333 l-7 -118 -588 0 c-554 0 -589 1 -589 18 0 9 -5 82
-10 161 -11 168 -28 287 -44 299 -6 4 -38 16 -71 26 -85 26 -154 67 -212 129
-82 87 -123 189 -123 307 0 292 243 502 551 476 l77 -6 60 60 c130 130 315
178 492 129z m450 -1764 c-3 -35 -11 -70 -18 -77 -10 -10 -131 -14 -558 -16
l-544 -2 -25 24 c-21 21 -25 35 -25 81 l0 55 588 0 587 0 -5 -65z"/>
<path d="M2752 4301 c-77 -49 -92 -142 -46 -279 29 -89 113 -252 132 -260 21
-7 202 74 284 128 93 61 130 111 131 177 2 140 -146 205 -250 111 l-22 -20
-11 42 c-6 23 -26 58 -44 77 -28 31 -40 37 -87 40 -42 3 -61 0 -87 -16z"/>
<path d="M2794 2596 c-125 -39 -191 -169 -152 -300 25 -84 127 -156 219 -156
91 0 183 62 215 146 14 38 21 44 45 44 35 0 63 35 48 61 -5 10 -25 21 -44 25
-28 5 -36 12 -46 42 -18 54 -88 118 -150 136 -62 19 -80 19 -135 2z m156 -66
c104 -53 122 -216 32 -292 -93 -78 -230 -51 -281 54 -45 93 -17 183 74 239 41
26 124 25 175 -1z"/>
<path d="M2355 1982 l-100 -57 -90 0 c-75 0 -96 4 -128 23 -49 28 -51 28 -33
-7 25 -47 112 -118 169 -137 104 -35 231 -13 327 57 l41 30 34 -29 c81 -71
239 -96 337 -53 65 28 101 56 137 106 17 24 31 46 31 49 0 3 -24 -6 -52 -19
-39 -18 -70 -25 -119 -25 -74 0 -99 9 -214 74 -80 46 -121 56 -143 34 -9 -9
-15 -9 -24 0 -25 25 -73 12 -173 -46z"/>
<path d="M322 1187 l-322 -483 0 -56 0 -55 743 -6 c956 -9 3075 -9 3288 0
l164 6 355 530 c195 291 357 534 358 538 2 5 -949 9 -2130 9 l-2134 0 -322
-483z m608 130 c0 -7 -10 -17 -22 -22 -22 -9 -23 -18 -32 -162 -4 -84 -6 -159
-2 -168 3 -8 17 -15 31 -15 16 0 25 -6 25 -15 0 -12 -13 -15 -57 -15 -32 0
-68 -3 -80 -6 -33 -9 -30 24 2 36 l25 10 -2 167 c-3 152 -5 168 -20 168 -10 0
-18 4 -18 8 0 4 0 12 0 17 0 6 32 10 75 10 54 0 75 -4 75 -13z m114 -34 c-10
-70 -19 -96 -32 -101 -9 -3 -12 18 -12 72 0 75 0 76 26 76 24 0 25 -1 18 -47z
m246 -108 c29 -86 56 -152 61 -148 4 4 29 73 57 153 l50 145 56 3 c43 2 56 0
56 -11 0 -8 -12 -18 -26 -21 l-26 -7 7 -127 c10 -178 15 -205 42 -212 40 -9
10 -27 -54 -32 -47 -3 -63 -1 -63 9 0 7 9 17 21 23 19 11 20 17 14 113 -14
199 -12 199 -80 12 -32 -91 -64 -164 -70 -162 -5 2 -35 74 -66 161 -31 86 -59
159 -62 162 -4 4 -21 -204 -22 -266 0 -8 10 -16 23 -18 12 -2 22 -9 22 -17 0
-9 -18 -14 -60 -17 -48 -2 -60 0 -60 12 0 8 8 20 19 27 15 9 20 34 30 140 7
70 14 141 17 156 5 24 2 30 -25 40 -52 19 -39 37 28 37 l59 0 52 -155z m640
141 c0 -8 -9 -18 -20 -21 -15 -5 -20 -15 -20 -43 0 -20 -3 -54 -6 -74 l-7 -38
70 0 c39 0 85 3 102 6 l31 7 0 68 c0 66 -4 75 -32 70 -5 0 -8 8 -8 19 0 18 7
20 70 20 54 0 70 -3 70 -14 0 -8 -9 -17 -19 -21 -16 -5 -20 -19 -26 -98 -3
-51 -5 -126 -3 -167 3 -73 4 -75 30 -78 19 -2 25 -8 21 -18 -7 -19 -153 -21
-153 -1 0 7 10 17 23 22 19 9 22 18 25 83 l3 72 -88 0 c-48 0 -94 -4 -101 -9
-9 -5 -12 -28 -10 -77 3 -66 4 -69 30 -74 49 -9 16 -27 -59 -32 -58 -4 -73 -3
-73 9 0 7 8 17 18 20 9 4 20 11 24 17 4 6 8 82 8 169 0 155 -2 163 -32 158 -5
0 -8 8 -8 19 0 18 7 20 70 20 54 0 70 -3 70 -14z m460 8 c0 -4 -11 -17 -25
-30 -24 -22 -25 -28 -25 -137 0 -63 5 -128 11 -146 27 -78 153 -82 184 -6 16
36 19 163 7 245 -6 36 -11 45 -27 45 -11 0 -20 7 -20 15 0 12 16 16 68 18 53
2 67 0 67 -11 0 -8 -9 -17 -20 -20 -19 -5 -20 -14 -20 -129 0 -67 -5 -140 -10
-160 -28 -99 -186 -131 -261 -52 -23 24 -24 34 -29 176 -5 158 -3 151 -49 175
-1 1 0 6 4 12 7 12 145 16 145 5z m495 -139 c54 -80 102 -148 106 -151 5 -3 9
54 9 125 0 124 -1 131 -20 131 -13 0 -20 7 -20 20 0 18 7 20 65 20 51 0 65 -3
65 -15 0 -8 -4 -15 -9 -15 -5 0 -17 -7 -25 -16 -13 -13 -16 -44 -16 -184 0
-165 -4 -200 -21 -200 -4 0 -59 75 -121 168 l-113 167 -9 -128 c-4 -70 -5
-134 -2 -142 3 -8 17 -15 30 -15 18 0 24 -4 20 -14 -6 -16 -122 -27 -131 -12
-3 5 5 17 18 26 22 17 23 25 27 174 l4 155 -26 12 c-43 20 -33 39 23 39 l48 0
98 -145z m591 133 c4 -4 3 -31 -2 -59 -10 -59 -34 -80 -34 -30 0 46 -35 65
-110 59 -49 -3 -66 -10 -89 -32 -73 -70 -61 -236 21 -286 38 -23 115 -27 142
-7 13 10 17 24 14 62 l-3 50 -38 3 c-29 3 -37 7 -35 19 2 14 16 16 73 15 53 0
69 -4 65 -14 -2 -7 -6 -45 -8 -85 l-4 -72 -36 -13 c-20 -7 -69 -13 -108 -13
-59 0 -76 4 -107 25 -54 37 -81 92 -81 165 1 101 49 179 134 214 27 12 194 10
206 -1z m318 -2 c84 -35 88 -141 6 -193 l-30 -19 43 -69 c28 -46 54 -75 75
-85 39 -19 36 -34 -7 -38 -43 -4 -71 22 -119 110 -31 59 -40 68 -64 68 -27 0
-28 -2 -28 -54 0 -68 7 -86 32 -86 11 0 18 -5 16 -12 -6 -17 -148 -24 -148 -8
0 6 11 15 25 20 l25 10 -2 167 c-3 153 -5 168 -20 167 -11 -1 -18 5 -18 17 0
17 8 19 90 19 55 0 104 -6 124 -14z m286 0 c0 -8 -10 -16 -22 -18 -31 -4 -28
-35 10 -117 l29 -65 42 75 c46 84 49 99 21 106 -11 3 -20 12 -20 19 0 11 17
14 70 14 77 0 91 -13 41 -41 -42 -25 -126 -179 -135 -249 -8 -68 -1 -90 30
-90 14 0 24 -6 24 -14 0 -10 -20 -15 -77 -18 -43 -3 -80 -3 -83 0 -3 2 9 15
25 28 27 21 30 29 29 76 -1 73 -79 241 -123 266 -54 30 -39 42 54 42 67 0 85
-3 85 -14z"/>
<path d="M3680 1216 l0 -85 28 -3 c40 -5 69 11 86 47 22 45 9 86 -35 107 -18
10 -44 18 -56 18 -22 0 -23 -4 -23 -84z"/>
<path d="M2315 488 c-2 -7 -20 -58 -40 -113 -19 -55 -35 -101 -35 -102 0 -2
13 -3 29 -3 23 0 30 5 33 23 3 19 10 22 49 25 43 3 47 1 53 -23 5 -18 13 -25
31 -25 14 0 25 3 25 8 0 4 -17 55 -37 114 -38 108 -38 108 -71 108 -18 0 -35
-6 -37 -12z m64 -110 c1 -5 -10 -8 -24 -8 -28 0 -31 13 -14 57 l11 28 13 -35
c8 -19 14 -38 14 -42z"/>
<path d="M2490 320 l0 -130 25 0 c23 0 25 4 25 43 l0 43 38 -4 c29 -3 42 1 57
18 27 30 28 110 1 139 -21 23 -65 28 -85 9 -11 -10 -14 -10 -18 0 -3 6 -13 12
-24 12 -18 0 -19 -9 -19 -130z m112 65 c15 -33 -3 -75 -32 -75 -23 0 -36 36
-26 75 4 16 13 25 26 25 12 0 25 -10 32 -25z"/>
<path d="M2700 320 l0 -130 25 0 c23 0 25 4 25 43 l0 43 39 -4 c49 -5 71 22
71 88 0 76 -43 110 -101 80 -13 -7 -19 -7 -19 0 0 5 -9 10 -20 10 -19 0 -20
-7 -20 -130z m105 40 c0 -41 -2 -45 -25 -45 -21 0 -26 5 -28 33 -5 47 4 64 30
60 20 -3 23 -9 23 -48z"/>
</g>
</svg>
